<svg xmlns="http://www.w3.org/2000/svg" width="340" height="200" viewBox="0 0 340 200" font-family="'Segoe UI', Ubuntu, Sans-Serif">
  <rect x="0.5" y="0.5" width="339" height="199" rx="6" fill="#ffffff" stroke="#e4e2e2" stroke-opacity="1.00"/>
  <text x="20" y="30" font-size="15" font-weight="600" fill="#0366d6">Most Commit Language (last year)</text>
  <rect x="20" y="47" width="10" height="10" fill="#4F5D95" stroke="#ffffff" stroke-width="1"/>
  <text x="36" y="55" font-size="11" fill="#586069">PHP 24.94%</text>
  <rect x="20" y="67" width="10" height="10" fill="#f1e05a" stroke="#ffffff" stroke-width="1"/>
  <text x="36" y="75" font-size="11" fill="#586069">JavaScript 22.66%</text>
  <rect x="20" y="87" width="10" height="10" fill="#f7523f" stroke="#ffffff" stroke-width="1"/>
  <text x="36" y="95" font-size="11" fill="#586069">Blade 17.68%</text>
  <rect x="20" y="107" width="10" height="10" fill="#3178c6" stroke="#ffffff" stroke-width="1"/>
  <text x="36" y="115" font-size="11" fill="#586069">TypeScript 17.15%</text>
  <rect x="20" y="127" width="10" height="10" fill="#663399" stroke="#ffffff" stroke-width="1"/>
  <text x="36" y="135" font-size="11" fill="#586069">CSS 8.78%</text>
  <rect x="20" y="147" width="10" height="10" fill="#e34c26" stroke="#ffffff" stroke-width="1"/>
  <text x="36" y="155" font-size="11" fill="#586069">HTML 6.30%</text>
  <rect x="20" y="167" width="10" height="10" fill="#40c463" stroke="#ffffff" stroke-width="1"/>
  <text x="36" y="175" font-size="11" fill="#586069">Other 2.49%</text>
  <path d="M250.00,55.00 A55.00,55.00 0 0 1 305.00,109.81 L280.00,109.89 A30.00,30.00 0 0 0 250.00,80.00 Z" fill="#4F5D95" stroke="#ffffff" stroke-width="1.5"/>
  <path d="M305.00,109.81 A55.00,55.00 0 0 1 258.25,164.38 L254.50,139.66 A30.00,30.00 0 0 0 280.00,109.89 Z" fill="#f1e05a" stroke="#ffffff" stroke-width="1.5"/>
  <path d="M258.25,164.38 A55.00,55.00 0 0 1 204.94,141.54 L225.42,127.20 A30.00,30.00 0 0 0 254.50,139.66 Z" fill="#f7523f" stroke="#ffffff" stroke-width="1.5"/>
  <path d="M204.94,141.54 A55.00,55.00 0 0 1 200.89,85.25 L223.21,96.50 A30.00,30.00 0 0 0 225.42,127.20 Z" fill="#3178c6" stroke="#ffffff" stroke-width="1.5"/>
  <path d="M200.89,85.25 A55.00,55.00 0 0 1 221.15,63.18 L234.26,84.46 A30.00,30.00 0 0 0 223.21,96.50 Z" fill="#663399" stroke="#ffffff" stroke-width="1.5"/>
  <path d="M221.15,63.18 A55.00,55.00 0 0 1 241.42,55.67 L245.32,80.37 A30.00,30.00 0 0 0 234.26,84.46 Z" fill="#e34c26" stroke="#ffffff" stroke-width="1.5"/>
  <path d="M241.42,55.67 A55.00,55.00 0 0 1 250.00,55.00 L250.00,80.00 A30.00,30.00 0 0 0 245.32,80.37 Z" fill="#40c463" stroke="#ffffff" stroke-width="1.5"/>
</svg>