<svg xmlns="http://www.w3.org/2000/svg" width="340" height="200" viewBox="0 0 340 200" font-family="'Segoe UI', Ubuntu, Sans-Serif">
  <rect x="0.5" y="0.5" width="339" height="199" rx="6" fill="#ffffff" stroke="#e4e2e2" stroke-opacity="1.00"/>
  <text x="20" y="30" font-size="15" font-weight="600" fill="#0366d6">Most Commit Language (last year)</text>
  <rect x="20" y="47" width="10" height="10" fill="#4F5D95" stroke="#ffffff" stroke-width="1"/>
  <text x="36" y="55" font-size="11" fill="#586069">PHP 26.67%</text>
  <rect x="20" y="67" width="10" height="10" fill="#f7523f" stroke="#ffffff" stroke-width="1"/>
  <text x="36" y="75" font-size="11" fill="#586069">Blade 20.42%</text>
  <rect x="20" y="87" width="10" height="10" fill="#f1e05a" stroke="#ffffff" stroke-width="1"/>
  <text x="36" y="95" font-size="11" fill="#586069">JavaScript 17.15%</text>
  <rect x="20" y="107" width="10" height="10" fill="#3178c6" stroke="#ffffff" stroke-width="1"/>
  <text x="36" y="115" font-size="11" fill="#586069">TypeScript 13.52%</text>
  <rect x="20" y="127" width="10" height="10" fill="#663399" stroke="#ffffff" stroke-width="1"/>
  <text x="36" y="135" font-size="11" fill="#586069">CSS 11.31%</text>
  <rect x="20" y="147" width="10" height="10" fill="#e34c26" stroke="#ffffff" stroke-width="1"/>
  <text x="36" y="155" font-size="11" fill="#586069">HTML 8.32%</text>
  <rect x="20" y="167" width="10" height="10" fill="#40c463" stroke="#ffffff" stroke-width="1"/>
  <text x="36" y="175" font-size="11" fill="#586069">Other 2.61%</text>
  <path d="M250.00,55.00 A55.00,55.00 0 0 1 304.70,115.76 L279.83,113.14 A30.00,30.00 0 0 0 250.00,80.00 Z" fill="#4F5D95" stroke="#ffffff" stroke-width="1.5"/>
  <path d="M304.70,115.76 A55.00,55.00 0 0 1 259.99,164.08 L255.45,139.50 A30.00,30.00 0 0 0 279.83,113.14 Z" fill="#f7523f" stroke="#ffffff" stroke-width="1.5"/>
  <path d="M259.99,164.08 A55.00,55.00 0 0 1 207.10,144.42 L226.60,128.77 A30.00,30.00 0 0 0 255.45,139.50 Z" fill="#f1e05a" stroke="#ffffff" stroke-width="1.5"/>
  <path d="M207.10,144.42 A55.00,55.00 0 0 1 195.83,100.50 L220.45,104.82 A30.00,30.00 0 0 0 226.60,128.77 Z" fill="#3178c6" stroke="#ffffff" stroke-width="1.5"/>
  <path d="M195.83,100.50 A55.00,55.00 0 0 1 215.12,67.47 L230.98,86.80 A30.00,30.00 0 0 0 220.45,104.82 Z" fill="#663399" stroke="#ffffff" stroke-width="1.5"/>
  <path d="M215.12,67.47 A55.00,55.00 0 0 1 241.01,55.74 L245.10,80.40 A30.00,30.00 0 0 0 230.98,86.80 Z" fill="#e34c26" stroke="#ffffff" stroke-width="1.5"/>
  <path d="M241.01,55.74 A55.00,55.00 0 0 1 250.00,55.00 L250.00,80.00 A30.00,30.00 0 0 0 245.10,80.40 Z" fill="#40c463" stroke="#ffffff" stroke-width="1.5"/>
</svg>