<svg xmlns="http://www.w3.org/2000/svg" width="340" height="200" viewBox="0 0 340 200" font-family="'Segoe UI', Ubuntu, Sans-Serif">
  <rect x="0.5" y="0.5" width="339" height="199" rx="6" fill="#ffffff" stroke="#e4e2e2" stroke-opacity="1.00"/>
  <text x="20" y="30" font-size="15" font-weight="600" fill="#0366d6">Most Commit Language (last year)</text>
  <rect x="20" y="47" width="10" height="10" fill="#4F5D95" stroke="#ffffff" stroke-width="1"/>
  <text x="36" y="55" font-size="11" fill="#586069">PHP 25.64%</text>
  <rect x="20" y="67" width="10" height="10" fill="#f1e05a" stroke="#ffffff" stroke-width="1"/>
  <text x="36" y="75" font-size="11" fill="#586069">JavaScript 21.96%</text>
  <rect x="20" y="87" width="10" height="10" fill="#f7523f" stroke="#ffffff" stroke-width="1"/>
  <text x="36" y="95" font-size="11" fill="#586069">Blade 19.04%</text>
  <rect x="20" y="107" width="10" height="10" fill="#3178c6" stroke="#ffffff" stroke-width="1"/>
  <text x="36" y="115" font-size="11" fill="#586069">TypeScript 16.48%</text>
  <rect x="20" y="127" width="10" height="10" fill="#663399" stroke="#ffffff" stroke-width="1"/>
  <text x="36" y="135" font-size="11" fill="#586069">CSS 8.54%</text>
  <rect x="20" y="147" width="10" height="10" fill="#e34c26" stroke="#ffffff" stroke-width="1"/>
  <text x="36" y="155" font-size="11" fill="#586069">HTML 5.98%</text>
  <rect x="20" y="167" width="10" height="10" fill="#40c463" stroke="#ffffff" stroke-width="1"/>
  <text x="36" y="175" font-size="11" fill="#586069">Other 2.36%</text>
  <path d="M250.00,55.00 A55.00,55.00 0 0 1 304.95,112.23 L279.98,111.21 A30.00,30.00 0 0 0 250.00,80.00 Z" fill="#4F5D95" stroke="#ffffff" stroke-width="1.5"/>
  <path d="M304.95,112.23 A55.00,55.00 0 0 1 258.25,164.38 L254.50,139.66 A30.00,30.00 0 0 0 279.98,111.21 Z" fill="#f1e05a" stroke="#ffffff" stroke-width="1.5"/>
  <path d="M258.25,164.38 A55.00,55.00 0 0 1 202.40,137.56 L224.04,125.03 A30.00,30.00 0 0 0 254.50,139.66 Z" fill="#f7523f" stroke="#ffffff" stroke-width="1.5"/>
  <path d="M202.40,137.56 A55.00,55.00 0 0 1 202.02,83.11 L223.83,95.33 A30.00,30.00 0 0 0 224.04,125.03 Z" fill="#3178c6" stroke="#ffffff" stroke-width="1.5"/>
  <path d="M202.02,83.11 A55.00,55.00 0 0 1 222.49,62.37 L235.00,84.02 A30.00,30.00 0 0 0 223.83,95.33 Z" fill="#663399" stroke="#ffffff" stroke-width="1.5"/>
  <path d="M222.49,62.37 A55.00,55.00 0 0 1 241.88,55.60 L245.57,80.33 A30.00,30.00 0 0 0 235.00,84.02 Z" fill="#e34c26" stroke="#ffffff" stroke-width="1.5"/>
  <path d="M241.88,55.60 A55.00,55.00 0 0 1 250.00,55.00 L250.00,80.00 A30.00,30.00 0 0 0 245.57,80.33 Z" fill="#40c463" stroke="#ffffff" stroke-width="1.5"/>
</svg>