<svg xmlns="http://www.w3.org/2000/svg" width="340" height="200" viewBox="0 0 340 200" font-family="'Segoe UI', Ubuntu, Sans-Serif">
  <rect x="0.5" y="0.5" width="339" height="199" rx="6" fill="#ffffff" stroke="#e4e2e2" stroke-opacity="1.00"/>
  <text x="20" y="30" font-size="15" font-weight="600" fill="#0366d6">Most Commit Language (last year)</text>
  <rect x="20" y="47" width="10" height="10" fill="#4F5D95" stroke="#ffffff" stroke-width="1"/>
  <text x="36" y="55" font-size="11" fill="#586069">PHP 26.78%</text>
  <rect x="20" y="67" width="10" height="10" fill="#f7523f" stroke="#ffffff" stroke-width="1"/>
  <text x="36" y="75" font-size="11" fill="#586069">Blade 21.18%</text>
  <rect x="20" y="87" width="10" height="10" fill="#f1e05a" stroke="#ffffff" stroke-width="1"/>
  <text x="36" y="95" font-size="11" fill="#586069">JavaScript 15.82%</text>
  <rect x="20" y="107" width="10" height="10" fill="#3178c6" stroke="#ffffff" stroke-width="1"/>
  <text x="36" y="115" font-size="11" fill="#586069">TypeScript 14.46%</text>
  <rect x="20" y="127" width="10" height="10" fill="#663399" stroke="#ffffff" stroke-width="1"/>
  <text x="36" y="135" font-size="11" fill="#586069">CSS 11.43%</text>
  <rect x="20" y="147" width="10" height="10" fill="#e34c26" stroke="#ffffff" stroke-width="1"/>
  <text x="36" y="155" font-size="11" fill="#586069">HTML 7.86%</text>
  <rect x="20" y="167" width="10" height="10" fill="#40c463" stroke="#ffffff" stroke-width="1"/>
  <text x="36" y="175" font-size="11" fill="#586069">Other 2.46%</text>
  <path d="M250.00,55.00 A55.00,55.00 0 0 1 304.65,116.15 L279.81,113.36 A30.00,30.00 0 0 0 250.00,80.00 Z" fill="#4F5D95" stroke="#ffffff" stroke-width="1.5"/>
  <path d="M304.65,116.15 A55.00,55.00 0 0 1 257.02,164.55 L253.83,139.75 A30.00,30.00 0 0 0 279.81,113.36 Z" fill="#f7523f" stroke="#ffffff" stroke-width="1.5"/>
  <path d="M257.02,164.55 A55.00,55.00 0 0 1 208.10,145.63 L227.15,129.44 A30.00,30.00 0 0 0 253.83,139.75 Z" fill="#f1e05a" stroke="#ffffff" stroke-width="1.5"/>
  <path d="M208.10,145.63 A55.00,55.00 0 0 1 196.14,98.85 L220.62,103.92 A30.00,30.00 0 0 0 227.15,129.44 Z" fill="#3178c6" stroke="#ffffff" stroke-width="1.5"/>
  <path d="M196.14,98.85 A55.00,55.00 0 0 1 216.78,66.17 L231.88,86.09 A30.00,30.00 0 0 0 220.62,103.92 Z" fill="#663399" stroke="#ffffff" stroke-width="1.5"/>
  <path d="M216.78,66.17 A55.00,55.00 0 0 1 241.54,55.65 L245.38,80.36 A30.00,30.00 0 0 0 231.88,86.09 Z" fill="#e34c26" stroke="#ffffff" stroke-width="1.5"/>
  <path d="M241.54,55.65 A55.00,55.00 0 0 1 250.00,55.00 L250.00,80.00 A30.00,30.00 0 0 0 245.38,80.36 Z" fill="#40c463" stroke="#ffffff" stroke-width="1.5"/>
</svg>