<svg xmlns="http://www.w3.org/2000/svg" width="340" height="200" viewBox="0 0 340 200" font-family="'Segoe UI', Ubuntu, Sans-Serif">
  <rect x="0.5" y="0.5" width="339" height="199" rx="6" fill="#ffffff" stroke="#e4e2e2" stroke-opacity="1.00"/>
  <text x="20" y="30" font-size="15" font-weight="600" fill="#0366d6">Most Commit Language (last year)</text>
  <rect x="20" y="47" width="10" height="10" fill="#f1e05a" stroke="#ffffff" stroke-width="1"/>
  <text x="36" y="55" font-size="11" fill="#586069">JavaScript 25.13%</text>
  <rect x="20" y="67" width="10" height="10" fill="#4F5D95" stroke="#ffffff" stroke-width="1"/>
  <text x="36" y="75" font-size="11" fill="#586069">PHP 24.88%</text>
  <rect x="20" y="87" width="10" height="10" fill="#f7523f" stroke="#ffffff" stroke-width="1"/>
  <text x="36" y="95" font-size="11" fill="#586069">Blade 16.81%</text>
  <rect x="20" y="107" width="10" height="10" fill="#3178c6" stroke="#ffffff" stroke-width="1"/>
  <text x="36" y="115" font-size="11" fill="#586069">TypeScript 14.42%</text>
  <rect x="20" y="127" width="10" height="10" fill="#663399" stroke="#ffffff" stroke-width="1"/>
  <text x="36" y="135" font-size="11" fill="#586069">CSS 8.15%</text>
  <rect x="20" y="147" width="10" height="10" fill="#e34c26" stroke="#ffffff" stroke-width="1"/>
  <text x="36" y="155" font-size="11" fill="#586069">HTML 7.71%</text>
  <rect x="20" y="167" width="10" height="10" fill="#40c463" stroke="#ffffff" stroke-width="1"/>
  <text x="36" y="175" font-size="11" fill="#586069">Other 2.90%</text>
  <path d="M250.00,55.00 A55.00,55.00 0 0 1 305.00,110.46 L280.00,110.25 A30.00,30.00 0 0 0 250.00,80.00 Z" fill="#f1e05a" stroke="#ffffff" stroke-width="1.5"/>
  <path d="M305.00,110.46 A55.00,55.00 0 0 1 249.95,165.00 L249.97,140.00 A30.00,30.00 0 0 0 280.00,110.25 Z" fill="#4F5D95" stroke="#ffffff" stroke-width="1.5"/>
  <path d="M249.95,165.00 A55.00,55.00 0 0 1 202.10,137.02 L223.87,124.74 A30.00,30.00 0 0 0 249.97,140.00 Z" fill="#f7523f" stroke="#ffffff" stroke-width="1.5"/>
  <path d="M202.10,137.02 A55.00,55.00 0 0 1 199.18,88.97 L222.28,98.53 A30.00,30.00 0 0 0 223.87,124.74 Z" fill="#3178c6" stroke="#ffffff" stroke-width="1.5"/>
  <path d="M199.18,88.97 A55.00,55.00 0 0 1 216.00,66.77 L231.45,86.42 A30.00,30.00 0 0 0 222.28,98.53 Z" fill="#663399" stroke="#ffffff" stroke-width="1.5"/>
  <path d="M216.00,66.77 A55.00,55.00 0 0 1 240.05,55.91 L244.57,80.50 A30.00,30.00 0 0 0 231.45,86.42 Z" fill="#e34c26" stroke="#ffffff" stroke-width="1.5"/>
  <path d="M240.05,55.91 A55.00,55.00 0 0 1 250.00,55.00 L250.00,80.00 A30.00,30.00 0 0 0 244.57,80.50 Z" fill="#40c463" stroke="#ffffff" stroke-width="1.5"/>
</svg>