<svg xmlns="http://www.w3.org/2000/svg" width="340" height="200" viewBox="0 0 340 200" font-family="'Segoe UI', Ubuntu, Sans-Serif">
  <rect x="0.5" y="0.5" width="339" height="199" rx="6" fill="#ffffff" stroke="#e4e2e2" stroke-opacity="1.00"/>
  <text x="20" y="30" font-size="15" font-weight="600" fill="#0366d6">Most Commit Language (last year)</text>
  <rect x="20" y="47" width="10" height="10" fill="#4F5D95" stroke="#ffffff" stroke-width="1"/>
  <text x="36" y="55" font-size="11" fill="#586069">PHP 24.70%</text>
  <rect x="20" y="67" width="10" height="10" fill="#f1e05a" stroke="#ffffff" stroke-width="1"/>
  <text x="36" y="75" font-size="11" fill="#586069">JavaScript 23.16%</text>
  <rect x="20" y="87" width="10" height="10" fill="#f7523f" stroke="#ffffff" stroke-width="1"/>
  <text x="36" y="95" font-size="11" fill="#586069">Blade 17.39%</text>
  <rect x="20" y="107" width="10" height="10" fill="#3178c6" stroke="#ffffff" stroke-width="1"/>
  <text x="36" y="115" font-size="11" fill="#586069">TypeScript 16.89%</text>
  <rect x="20" y="127" width="10" height="10" fill="#663399" stroke="#ffffff" stroke-width="1"/>
  <text x="36" y="135" font-size="11" fill="#586069">CSS 8.81%</text>
  <rect x="20" y="147" width="10" height="10" fill="#e34c26" stroke="#ffffff" stroke-width="1"/>
  <text x="36" y="155" font-size="11" fill="#586069">HTML 6.48%</text>
  <rect x="20" y="167" width="10" height="10" fill="#40c463" stroke="#ffffff" stroke-width="1"/>
  <text x="36" y="175" font-size="11" fill="#586069">Other 2.57%</text>
  <path d="M250.00,55.00 A55.00,55.00 0 0 1 304.99,108.96 L279.99,109.43 A30.00,30.00 0 0 0 250.00,80.00 Z" fill="#4F5D95" stroke="#ffffff" stroke-width="1.5"/>
  <path d="M304.99,108.96 A55.00,55.00 0 0 1 257.37,164.50 L254.02,139.73 A30.00,30.00 0 0 0 279.99,109.43 Z" fill="#f1e05a" stroke="#ffffff" stroke-width="1.5"/>
  <path d="M257.37,164.50 A55.00,55.00 0 0 1 204.99,141.61 L225.45,127.24 A30.00,30.00 0 0 0 254.02,139.73 Z" fill="#f7523f" stroke="#ffffff" stroke-width="1.5"/>
  <path d="M204.99,141.61 A55.00,55.00 0 0 1 200.45,86.12 L222.98,96.97 A30.00,30.00 0 0 0 225.45,127.24 Z" fill="#3178c6" stroke="#ffffff" stroke-width="1.5"/>
  <path d="M200.45,86.12 A55.00,55.00 0 0 1 220.40,63.64 L233.86,84.71 A30.00,30.00 0 0 0 222.98,96.97 Z" fill="#663399" stroke="#ffffff" stroke-width="1.5"/>
  <path d="M220.40,63.64 A55.00,55.00 0 0 1 241.17,55.71 L245.19,80.39 A30.00,30.00 0 0 0 233.86,84.71 Z" fill="#e34c26" stroke="#ffffff" stroke-width="1.5"/>
  <path d="M241.17,55.71 A55.00,55.00 0 0 1 250.00,55.00 L250.00,80.00 A30.00,30.00 0 0 0 245.19,80.39 Z" fill="#40c463" stroke="#ffffff" stroke-width="1.5"/>
</svg>