<svg xmlns="http://www.w3.org/2000/svg" width="340" height="200" viewBox="0 0 340 200" font-family="'Segoe UI', Ubuntu, Sans-Serif">
  <rect x="0.5" y="0.5" width="339" height="199" rx="6" fill="#ffffff" stroke="#e4e2e2" stroke-opacity="1.00"/>
  <text x="20" y="30" font-size="15" font-weight="600" fill="#0366d6">Most Commit Language (all time)</text>
  <rect x="20" y="47" width="10" height="10" fill="#f1e05a" stroke="#ffffff" stroke-width="1"/>
  <text x="36" y="55" font-size="11" fill="#586069">JavaScript 21.00%</text>
  <rect x="20" y="67" width="10" height="10" fill="#3178c6" stroke="#ffffff" stroke-width="1"/>
  <text x="36" y="75" font-size="11" fill="#586069">TypeScript 18.88%</text>
  <rect x="20" y="87" width="10" height="10" fill="#4F5D95" stroke="#ffffff" stroke-width="1"/>
  <text x="36" y="95" font-size="11" fill="#586069">PHP 17.49%</text>
  <rect x="20" y="107" width="10" height="10" fill="#663399" stroke="#ffffff" stroke-width="1"/>
  <text x="36" y="115" font-size="11" fill="#586069">CSS 12.67%</text>
  <rect x="20" y="127" width="10" height="10" fill="#f7523f" stroke="#ffffff" stroke-width="1"/>
  <text x="36" y="135" font-size="11" fill="#586069">Blade 8.77%</text>
  <rect x="20" y="147" width="10" height="10" fill="#c6538c" stroke="#ffffff" stroke-width="1"/>
  <text x="36" y="155" font-size="11" fill="#586069">SCSS 7.54%</text>
  <rect x="20" y="167" width="10" height="10" fill="#40c463" stroke="#ffffff" stroke-width="1"/>
  <text x="36" y="175" font-size="11" fill="#586069">Other 13.64%</text>
  <path d="M250.00,55.00 A55.00,55.00 0 0 1 303.28,96.34 L279.06,102.55 A30.00,30.00 0 0 0 250.00,80.00 Z" fill="#f1e05a" stroke="#ffffff" stroke-width="1.5"/>
  <path d="M303.28,96.34 A55.00,55.00 0 0 1 282.64,154.27 L267.80,134.15 A30.00,30.00 0 0 0 279.06,102.55 Z" fill="#3178c6" stroke="#ffffff" stroke-width="1.5"/>
  <path d="M282.64,154.27 A55.00,55.00 0 0 1 225.40,159.19 L236.58,136.83 A30.00,30.00 0 0 0 267.80,134.15 Z" fill="#4F5D95" stroke="#ffffff" stroke-width="1.5"/>
  <path d="M225.40,159.19 A55.00,55.00 0 0 1 197.64,126.83 L221.44,119.18 A30.00,30.00 0 0 0 236.58,136.83 Z" fill="#663399" stroke="#ffffff" stroke-width="1.5"/>
  <path d="M197.64,126.83 A55.00,55.00 0 0 1 196.58,96.91 L220.86,102.86 A30.00,30.00 0 0 0 221.44,119.18 Z" fill="#f7523f" stroke="#ffffff" stroke-width="1.5"/>
  <path d="M196.58,96.91 A55.00,55.00 0 0 1 208.43,73.98 L227.33,90.36 A30.00,30.00 0 0 0 220.86,102.86 Z" fill="#c6538c" stroke="#ffffff" stroke-width="1.5"/>
  <path d="M208.43,73.98 A55.00,55.00 0 0 1 250.00,55.00 L250.00,80.00 A30.00,30.00 0 0 0 227.33,90.36 Z" fill="#40c463" stroke="#ffffff" stroke-width="1.5"/>
</svg>