<svg xmlns="http://www.w3.org/2000/svg" width="340" height="200" viewBox="0 0 340 200" font-family="'Segoe UI', Ubuntu, Sans-Serif">
  <rect x="0.5" y="0.5" width="339" height="199" rx="6" fill="#ffffff" stroke="#e4e2e2" stroke-opacity="1.00"/>
  <text x="20" y="30" font-size="15" font-weight="600" fill="#0366d6">Most Commit Language (all time)</text>
  <rect x="20" y="47" width="10" height="10" fill="#f1e05a" stroke="#ffffff" stroke-width="1"/>
  <text x="36" y="55" font-size="11" fill="#586069">JavaScript 19.07%</text>
  <rect x="20" y="67" width="10" height="10" fill="#4F5D95" stroke="#ffffff" stroke-width="1"/>
  <text x="36" y="75" font-size="11" fill="#586069">PHP 18.71%</text>
  <rect x="20" y="87" width="10" height="10" fill="#3178c6" stroke="#ffffff" stroke-width="1"/>
  <text x="36" y="95" font-size="11" fill="#586069">TypeScript 17.52%</text>
  <rect x="20" y="107" width="10" height="10" fill="#663399" stroke="#ffffff" stroke-width="1"/>
  <text x="36" y="115" font-size="11" fill="#586069">CSS 13.19%</text>
  <rect x="20" y="127" width="10" height="10" fill="#f7523f" stroke="#ffffff" stroke-width="1"/>
  <text x="36" y="135" font-size="11" fill="#586069">Blade 11.10%</text>
  <rect x="20" y="147" width="10" height="10" fill="#e34c26" stroke="#ffffff" stroke-width="1"/>
  <text x="36" y="155" font-size="11" fill="#586069">HTML 7.61%</text>
  <rect x="20" y="167" width="10" height="10" fill="#40c463" stroke="#ffffff" stroke-width="1"/>
  <text x="36" y="175" font-size="11" fill="#586069">Other 12.81%</text>
  <path d="M250.00,55.00 A55.00,55.00 0 0 1 301.22,89.97 L277.94,99.08 A30.00,30.00 0 0 0 250.00,80.00 Z" fill="#f1e05a" stroke="#ffffff" stroke-width="1.5"/>
  <path d="M301.22,89.97 A55.00,55.00 0 0 1 288.21,149.56 L270.84,131.58 A30.00,30.00 0 0 0 277.94,99.08 Z" fill="#4F5D95" stroke="#ffffff" stroke-width="1.5"/>
  <path d="M288.21,149.56 A55.00,55.00 0 0 1 232.04,161.98 L240.20,138.35 A30.00,30.00 0 0 0 270.84,131.58 Z" fill="#3178c6" stroke="#ffffff" stroke-width="1.5"/>
  <path d="M232.04,161.98 A55.00,55.00 0 0 1 199.54,131.88 L222.48,121.93 A30.00,30.00 0 0 0 240.20,138.35 Z" fill="#663399" stroke="#ffffff" stroke-width="1.5"/>
  <path d="M199.54,131.88 A55.00,55.00 0 0 1 197.27,94.37 L221.24,101.47 A30.00,30.00 0 0 0 222.48,121.93 Z" fill="#f7523f" stroke="#ffffff" stroke-width="1.5"/>
  <path d="M197.27,94.37 A55.00,55.00 0 0 1 210.36,71.87 L228.38,89.20 A30.00,30.00 0 0 0 221.24,101.47 Z" fill="#e34c26" stroke="#ffffff" stroke-width="1.5"/>
  <path d="M210.36,71.87 A55.00,55.00 0 0 1 250.00,55.00 L250.00,80.00 A30.00,30.00 0 0 0 228.38,89.20 Z" fill="#40c463" stroke="#ffffff" stroke-width="1.5"/>
</svg>