<svg xmlns="http://www.w3.org/2000/svg" width="340" height="200" viewBox="0 0 340 200" font-family="'Segoe UI', Ubuntu, Sans-Serif">
  <rect x="0.5" y="0.5" width="339" height="199" rx="6" fill="#ffffff" stroke="#e4e2e2" stroke-opacity="1.00"/>
  <text x="20" y="30" font-size="15" font-weight="600" fill="#0366d6">Most Commit Language (all time)</text>
  <rect x="20" y="47" width="10" height="10" fill="#f1e05a" stroke="#ffffff" stroke-width="1"/>
  <text x="36" y="55" font-size="11" fill="#586069">JavaScript 21.57%</text>
  <rect x="20" y="67" width="10" height="10" fill="#3178c6" stroke="#ffffff" stroke-width="1"/>
  <text x="36" y="75" font-size="11" fill="#586069">TypeScript 18.03%</text>
  <rect x="20" y="87" width="10" height="10" fill="#4F5D95" stroke="#ffffff" stroke-width="1"/>
  <text x="36" y="95" font-size="11" fill="#586069">PHP 17.30%</text>
  <rect x="20" y="107" width="10" height="10" fill="#663399" stroke="#ffffff" stroke-width="1"/>
  <text x="36" y="115" font-size="11" fill="#586069">CSS 12.59%</text>
  <rect x="20" y="127" width="10" height="10" fill="#f7523f" stroke="#ffffff" stroke-width="1"/>
  <text x="36" y="135" font-size="11" fill="#586069">Blade 8.22%</text>
  <rect x="20" y="147" width="10" height="10" fill="#c6538c" stroke="#ffffff" stroke-width="1"/>
  <text x="36" y="155" font-size="11" fill="#586069">SCSS 7.89%</text>
  <rect x="20" y="167" width="10" height="10" fill="#40c463" stroke="#ffffff" stroke-width="1"/>
  <text x="36" y="175" font-size="11" fill="#586069">Other 14.40%</text>
  <path d="M250.00,55.00 A55.00,55.00 0 0 1 303.72,98.22 L279.30,103.58 A30.00,30.00 0 0 0 250.00,80.00 Z" fill="#f1e05a" stroke="#ffffff" stroke-width="1.5"/>
  <path d="M303.72,98.22 A55.00,55.00 0 0 1 283.44,153.67 L268.24,133.82 A30.00,30.00 0 0 0 279.30,103.58 Z" fill="#3178c6" stroke="#ffffff" stroke-width="1.5"/>
  <path d="M283.44,153.67 A55.00,55.00 0 0 1 226.90,159.91 L237.40,137.22 A30.00,30.00 0 0 0 268.24,133.82 Z" fill="#4F5D95" stroke="#ffffff" stroke-width="1.5"/>
  <path d="M226.90,159.91 A55.00,55.00 0 0 1 198.26,128.66 L221.78,120.18 A30.00,30.00 0 0 0 237.40,137.22 Z" fill="#663399" stroke="#ffffff" stroke-width="1.5"/>
  <path d="M198.26,128.66 A55.00,55.00 0 0 1 195.79,100.69 L220.43,104.92 A30.00,30.00 0 0 0 221.78,120.18 Z" fill="#f7523f" stroke="#ffffff" stroke-width="1.5"/>
  <path d="M195.79,100.69 A55.00,55.00 0 0 1 206.75,76.02 L226.41,91.46 A30.00,30.00 0 0 0 220.43,104.92 Z" fill="#c6538c" stroke="#ffffff" stroke-width="1.5"/>
  <path d="M206.75,76.02 A55.00,55.00 0 0 1 250.00,55.00 L250.00,80.00 A30.00,30.00 0 0 0 226.41,91.46 Z" fill="#40c463" stroke="#ffffff" stroke-width="1.5"/>
</svg>