<svg xmlns="http://www.w3.org/2000/svg" width="340" height="200" viewBox="0 0 340 200" font-family="'Segoe UI', Ubuntu, Sans-Serif">
  <rect x="0.5" y="0.5" width="339" height="199" rx="6" fill="#ffffff" stroke="#e4e2e2" stroke-opacity="1.00"/>
  <text x="20" y="30" font-size="15" font-weight="600" fill="#0366d6">Most Commit Language (all time)</text>
  <rect x="20" y="47" width="10" height="10" fill="#4F5D95" stroke="#ffffff" stroke-width="1"/>
  <text x="36" y="55" font-size="11" fill="#586069">PHP 19.61%</text>
  <rect x="20" y="67" width="10" height="10" fill="#f1e05a" stroke="#ffffff" stroke-width="1"/>
  <text x="36" y="75" font-size="11" fill="#586069">JavaScript 18.33%</text>
  <rect x="20" y="87" width="10" height="10" fill="#3178c6" stroke="#ffffff" stroke-width="1"/>
  <text x="36" y="95" font-size="11" fill="#586069">TypeScript 16.67%</text>
  <rect x="20" y="107" width="10" height="10" fill="#663399" stroke="#ffffff" stroke-width="1"/>
  <text x="36" y="115" font-size="11" fill="#586069">CSS 13.40%</text>
  <rect x="20" y="127" width="10" height="10" fill="#f7523f" stroke="#ffffff" stroke-width="1"/>
  <text x="36" y="135" font-size="11" fill="#586069">Blade 11.75%</text>
  <rect x="20" y="147" width="10" height="10" fill="#e34c26" stroke="#ffffff" stroke-width="1"/>
  <text x="36" y="155" font-size="11" fill="#586069">HTML 7.88%</text>
  <rect x="20" y="167" width="10" height="10" fill="#40c463" stroke="#ffffff" stroke-width="1"/>
  <text x="36" y="175" font-size="11" fill="#586069">Other 12.37%</text>
  <path d="M250.00,55.00 A55.00,55.00 0 0 1 301.88,91.73 L278.30,100.04 A30.00,30.00 0 0 0 250.00,80.00 Z" fill="#4F5D95" stroke="#ffffff" stroke-width="1.5"/>
  <path d="M301.88,91.73 A55.00,55.00 0 0 1 287.81,149.94 L270.62,131.79 A30.00,30.00 0 0 0 278.30,100.04 Z" fill="#f1e05a" stroke="#ffffff" stroke-width="1.5"/>
  <path d="M287.81,149.94 A55.00,55.00 0 0 1 234.30,162.71 L241.44,138.75 A30.00,30.00 0 0 0 270.62,131.79 Z" fill="#3178c6" stroke="#ffffff" stroke-width="1.5"/>
  <path d="M234.30,162.71 A55.00,55.00 0 0 1 200.23,133.40 L222.85,122.76 A30.00,30.00 0 0 0 241.44,138.75 Z" fill="#663399" stroke="#ffffff" stroke-width="1.5"/>
  <path d="M200.23,133.40 A55.00,55.00 0 0 1 197.44,93.80 L221.33,101.16 A30.00,30.00 0 0 0 222.85,122.76 Z" fill="#f7523f" stroke="#ffffff" stroke-width="1.5"/>
  <path d="M197.44,93.80 A55.00,55.00 0 0 1 211.44,70.78 L228.97,88.61 A30.00,30.00 0 0 0 221.33,101.16 Z" fill="#e34c26" stroke="#ffffff" stroke-width="1.5"/>
  <path d="M211.44,70.78 A55.00,55.00 0 0 1 250.00,55.00 L250.00,80.00 A30.00,30.00 0 0 0 228.97,88.61 Z" fill="#40c463" stroke="#ffffff" stroke-width="1.5"/>
</svg>