<svg xmlns="http://www.w3.org/2000/svg" width="340" height="200" viewBox="0 0 340 200" font-family="'Segoe UI', Ubuntu, Sans-Serif">
  <rect x="0.5" y="0.5" width="339" height="199" rx="6" fill="#ffffff" stroke="#e4e2e2" stroke-opacity="1.00"/>
  <text x="20" y="30" font-size="15" font-weight="600" fill="#0366d6">Most Commit Language (last year)</text>
  <rect x="20" y="47" width="10" height="10" fill="#f1e05a" stroke="#ffffff" stroke-width="1"/>
  <text x="36" y="55" font-size="11" fill="#586069">JavaScript 24.99%</text>
  <rect x="20" y="67" width="10" height="10" fill="#4F5D95" stroke="#ffffff" stroke-width="1"/>
  <text x="36" y="75" font-size="11" fill="#586069">PHP 24.86%</text>
  <rect x="20" y="87" width="10" height="10" fill="#f7523f" stroke="#ffffff" stroke-width="1"/>
  <text x="36" y="95" font-size="11" fill="#586069">Blade 17.09%</text>
  <rect x="20" y="107" width="10" height="10" fill="#3178c6" stroke="#ffffff" stroke-width="1"/>
  <text x="36" y="115" font-size="11" fill="#586069">TypeScript 14.80%</text>
  <rect x="20" y="127" width="10" height="10" fill="#663399" stroke="#ffffff" stroke-width="1"/>
  <text x="36" y="135" font-size="11" fill="#586069">CSS 8.26%</text>
  <rect x="20" y="147" width="10" height="10" fill="#e34c26" stroke="#ffffff" stroke-width="1"/>
  <text x="36" y="155" font-size="11" fill="#586069">HTML 7.15%</text>
  <rect x="20" y="167" width="10" height="10" fill="#40c463" stroke="#ffffff" stroke-width="1"/>
  <text x="36" y="175" font-size="11" fill="#586069">Other 2.84%</text>
  <path d="M250.00,55.00 A55.00,55.00 0 0 1 305.00,109.98 L280.00,109.99 A30.00,30.00 0 0 0 250.00,80.00 Z" fill="#f1e05a" stroke="#ffffff" stroke-width="1.5"/>
  <path d="M305.00,109.98 A55.00,55.00 0 0 1 250.51,165.00 L250.28,140.00 A30.00,30.00 0 0 0 280.00,109.99 Z" fill="#4F5D95" stroke="#ffffff" stroke-width="1.5"/>
  <path d="M250.51,165.00 A55.00,55.00 0 0 1 201.90,136.67 L223.76,124.55 A30.00,30.00 0 0 0 250.28,140.00 Z" fill="#f7523f" stroke="#ffffff" stroke-width="1.5"/>
  <path d="M201.90,136.67 A55.00,55.00 0 0 1 199.86,87.40 L222.65,97.67 A30.00,30.00 0 0 0 223.76,124.55 Z" fill="#3178c6" stroke="#ffffff" stroke-width="1.5"/>
  <path d="M199.86,87.40 A55.00,55.00 0 0 1 217.68,65.50 L232.37,85.73 A30.00,30.00 0 0 0 222.65,97.67 Z" fill="#663399" stroke="#ffffff" stroke-width="1.5"/>
  <path d="M217.68,65.50 A55.00,55.00 0 0 1 240.23,55.88 L244.67,80.48 A30.00,30.00 0 0 0 232.37,85.73 Z" fill="#e34c26" stroke="#ffffff" stroke-width="1.5"/>
  <path d="M240.23,55.88 A55.00,55.00 0 0 1 250.00,55.00 L250.00,80.00 A30.00,30.00 0 0 0 244.67,80.48 Z" fill="#40c463" stroke="#ffffff" stroke-width="1.5"/>
</svg>