<svg xmlns="http://www.w3.org/2000/svg" width="340" height="200" viewBox="0 0 340 200" font-family="'Segoe UI', Ubuntu, Sans-Serif">
  <rect x="0.5" y="0.5" width="339" height="199" rx="6" fill="#ffffff" stroke="#e4e2e2" stroke-opacity="1.00"/>
  <text x="20" y="30" font-size="15" font-weight="600" fill="#0366d6">Most Commit Language (last year)</text>
  <rect x="20" y="47" width="10" height="10" fill="#4F5D95" stroke="#ffffff" stroke-width="1"/>
  <text x="36" y="55" font-size="11" fill="#586069">PHP 25.43%</text>
  <rect x="20" y="67" width="10" height="10" fill="#f1e05a" stroke="#ffffff" stroke-width="1"/>
  <text x="36" y="75" font-size="11" fill="#586069">JavaScript 21.52%</text>
  <rect x="20" y="87" width="10" height="10" fill="#f7523f" stroke="#ffffff" stroke-width="1"/>
  <text x="36" y="95" font-size="11" fill="#586069">Blade 18.79%</text>
  <rect x="20" y="107" width="10" height="10" fill="#3178c6" stroke="#ffffff" stroke-width="1"/>
  <text x="36" y="115" font-size="11" fill="#586069">TypeScript 17.56%</text>
  <rect x="20" y="127" width="10" height="10" fill="#663399" stroke="#ffffff" stroke-width="1"/>
  <text x="36" y="135" font-size="11" fill="#586069">CSS 8.53%</text>
  <rect x="20" y="147" width="10" height="10" fill="#e34c26" stroke="#ffffff" stroke-width="1"/>
  <text x="36" y="155" font-size="11" fill="#586069">HTML 5.87%</text>
  <rect x="20" y="167" width="10" height="10" fill="#40c463" stroke="#ffffff" stroke-width="1"/>
  <text x="36" y="175" font-size="11" fill="#586069">Other 2.31%</text>
  <path d="M250.00,55.00 A55.00,55.00 0 0 1 304.98,111.49 L279.99,110.81 A30.00,30.00 0 0 0 250.00,80.00 Z" fill="#4F5D95" stroke="#ffffff" stroke-width="1.5"/>
  <path d="M304.98,111.49 A55.00,55.00 0 0 1 260.48,163.99 L255.71,139.45 A30.00,30.00 0 0 0 279.99,110.81 Z" fill="#f1e05a" stroke="#ffffff" stroke-width="1.5"/>
  <path d="M260.48,163.99 A55.00,55.00 0 0 1 204.05,140.22 L224.94,126.48 A30.00,30.00 0 0 0 255.71,139.45 Z" fill="#f7523f" stroke="#ffffff" stroke-width="1.5"/>
  <path d="M204.05,140.22 A55.00,55.00 0 0 1 202.31,82.60 L223.99,95.06 A30.00,30.00 0 0 0 224.94,126.48 Z" fill="#3178c6" stroke="#ffffff" stroke-width="1.5"/>
  <path d="M202.31,82.60 A55.00,55.00 0 0 1 222.97,62.10 L235.26,83.87 A30.00,30.00 0 0 0 223.99,95.06 Z" fill="#663399" stroke="#ffffff" stroke-width="1.5"/>
  <path d="M222.97,62.10 A55.00,55.00 0 0 1 242.05,55.58 L245.66,80.32 A30.00,30.00 0 0 0 235.26,83.87 Z" fill="#e34c26" stroke="#ffffff" stroke-width="1.5"/>
  <path d="M242.05,55.58 A55.00,55.00 0 0 1 250.00,55.00 L250.00,80.00 A30.00,30.00 0 0 0 245.66,80.32 Z" fill="#40c463" stroke="#ffffff" stroke-width="1.5"/>
</svg>