<svg xmlns="http://www.w3.org/2000/svg" width="340" height="200" viewBox="0 0 340 200" font-family="'Segoe UI', Ubuntu, Sans-Serif">
  <rect x="0.5" y="0.5" width="339" height="199" rx="6" fill="#ffffff" stroke="#e4e2e2" stroke-opacity="1.00"/>
  <text x="20" y="30" font-size="15" font-weight="600" fill="#0366d6">Most Commit Language (last year)</text>
  <rect x="20" y="47" width="10" height="10" fill="#4F5D95" stroke="#ffffff" stroke-width="1"/>
  <text x="36" y="55" font-size="11" fill="#586069">PHP 27.03%</text>
  <rect x="20" y="67" width="10" height="10" fill="#f7523f" stroke="#ffffff" stroke-width="1"/>
  <text x="36" y="75" font-size="11" fill="#586069">Blade 21.19%</text>
  <rect x="20" y="87" width="10" height="10" fill="#f1e05a" stroke="#ffffff" stroke-width="1"/>
  <text x="36" y="95" font-size="11" fill="#586069">JavaScript 20.71%</text>
  <rect x="20" y="107" width="10" height="10" fill="#3178c6" stroke="#ffffff" stroke-width="1"/>
  <text x="36" y="115" font-size="11" fill="#586069">TypeScript 16.55%</text>
  <rect x="20" y="127" width="10" height="10" fill="#663399" stroke="#ffffff" stroke-width="1"/>
  <text x="36" y="135" font-size="11" fill="#586069">CSS 7.46%</text>
  <rect x="20" y="147" width="10" height="10" fill="#e34c26" stroke="#ffffff" stroke-width="1"/>
  <text x="36" y="155" font-size="11" fill="#586069">HTML 5.51%</text>
  <rect x="20" y="167" width="10" height="10" fill="#40c463" stroke="#ffffff" stroke-width="1"/>
  <text x="36" y="175" font-size="11" fill="#586069">Other 1.55%</text>
  <path d="M250.00,55.00 A55.00,55.00 0 0 1 304.55,116.98 L279.76,113.81 A30.00,30.00 0 0 0 250.00,80.00 Z" fill="#4F5D95" stroke="#ffffff" stroke-width="1.5"/>
  <path d="M304.55,116.98 A55.00,55.00 0 0 1 256.14,164.66 L253.35,139.81 A30.00,30.00 0 0 0 279.76,113.81 Z" fill="#f7523f" stroke="#ffffff" stroke-width="1.5"/>
  <path d="M256.14,164.66 A55.00,55.00 0 0 1 198.96,130.48 L222.16,121.17 A30.00,30.00 0 0 0 253.35,139.81 Z" fill="#f1e05a" stroke="#ffffff" stroke-width="1.5"/>
  <path d="M198.96,130.48 A55.00,55.00 0 0 1 206.48,76.37 L226.26,91.65 A30.00,30.00 0 0 0 222.16,121.17 Z" fill="#3178c6" stroke="#ffffff" stroke-width="1.5"/>
  <path d="M206.48,76.37 A55.00,55.00 0 0 1 226.37,60.33 L237.11,82.91 A30.00,30.00 0 0 0 226.26,91.65 Z" fill="#663399" stroke="#ffffff" stroke-width="1.5"/>
  <path d="M226.37,60.33 A55.00,55.00 0 0 1 244.64,55.26 L247.08,80.14 A30.00,30.00 0 0 0 237.11,82.91 Z" fill="#e34c26" stroke="#ffffff" stroke-width="1.5"/>
  <path d="M244.64,55.26 A55.00,55.00 0 0 1 250.00,55.00 L250.00,80.00 A30.00,30.00 0 0 0 247.08,80.14 Z" fill="#40c463" stroke="#ffffff" stroke-width="1.5"/>
</svg>