<svg xmlns="http://www.w3.org/2000/svg" width="340" height="200" viewBox="0 0 340 200" font-family="'Segoe UI', Ubuntu, Sans-Serif">
  <rect x="0.5" y="0.5" width="339" height="199" rx="6" fill="#ffffff" stroke="#e4e2e2" stroke-opacity="1.00"/>
  <text x="20" y="30" font-size="15" font-weight="600" fill="#0366d6">Most Commit Language (last year)</text>
  <rect x="20" y="47" width="10" height="10" fill="#4F5D95" stroke="#ffffff" stroke-width="1"/>
  <text x="36" y="55" font-size="11" fill="#586069">PHP 28.08%</text>
  <rect x="20" y="67" width="10" height="10" fill="#f7523f" stroke="#ffffff" stroke-width="1"/>
  <text x="36" y="75" font-size="11" fill="#586069">Blade 23.56%</text>
  <rect x="20" y="87" width="10" height="10" fill="#3178c6" stroke="#ffffff" stroke-width="1"/>
  <text x="36" y="95" font-size="11" fill="#586069">TypeScript 16.99%</text>
  <rect x="20" y="107" width="10" height="10" fill="#f1e05a" stroke="#ffffff" stroke-width="1"/>
  <text x="36" y="115" font-size="11" fill="#586069">JavaScript 12.73%</text>
  <rect x="20" y="127" width="10" height="10" fill="#663399" stroke="#ffffff" stroke-width="1"/>
  <text x="36" y="135" font-size="11" fill="#586069">CSS 9.83%</text>
  <rect x="20" y="147" width="10" height="10" fill="#e34c26" stroke="#ffffff" stroke-width="1"/>
  <text x="36" y="155" font-size="11" fill="#586069">HTML 6.71%</text>
  <rect x="20" y="167" width="10" height="10" fill="#40c463" stroke="#ffffff" stroke-width="1"/>
  <text x="36" y="175" font-size="11" fill="#586069">Other 2.11%</text>
  <path d="M250.00,55.00 A55.00,55.00 0 0 1 303.98,120.56 L279.44,115.76 A30.00,30.00 0 0 0 250.00,80.00 Z" fill="#4F5D95" stroke="#ffffff" stroke-width="1.5"/>
  <path d="M303.98,120.56 A55.00,55.00 0 0 1 244.36,164.71 L246.92,139.84 A30.00,30.00 0 0 0 279.44,115.76 Z" fill="#f7523f" stroke="#ffffff" stroke-width="1.5"/>
  <path d="M244.36,164.71 A55.00,55.00 0 0 1 199.36,131.46 L222.38,121.70 A30.00,30.00 0 0 0 246.92,139.84 Z" fill="#3178c6" stroke="#ffffff" stroke-width="1.5"/>
  <path d="M199.36,131.46 A55.00,55.00 0 0 1 199.32,88.64 L222.36,98.35 A30.00,30.00 0 0 0 222.38,121.70 Z" fill="#f1e05a" stroke="#ffffff" stroke-width="1.5"/>
  <path d="M199.32,88.64 A55.00,55.00 0 0 1 221.07,63.22 L234.22,84.49 A30.00,30.00 0 0 0 222.36,98.35 Z" fill="#663399" stroke="#ffffff" stroke-width="1.5"/>
  <path d="M221.07,63.22 A55.00,55.00 0 0 1 242.74,55.48 L246.04,80.26 A30.00,30.00 0 0 0 234.22,84.49 Z" fill="#e34c26" stroke="#ffffff" stroke-width="1.5"/>
  <path d="M242.74,55.48 A55.00,55.00 0 0 1 250.00,55.00 L250.00,80.00 A30.00,30.00 0 0 0 246.04,80.26 Z" fill="#40c463" stroke="#ffffff" stroke-width="1.5"/>
</svg>