<svg xmlns="http://www.w3.org/2000/svg" width="340" height="200" viewBox="0 0 340 200" font-family="'Segoe UI', Ubuntu, Sans-Serif">
  <rect x="0.5" y="0.5" width="339" height="199" rx="6" fill="#ffffff" stroke="#e4e2e2" stroke-opacity="1.00"/>
  <text x="20" y="30" font-size="15" font-weight="600" fill="#0366d6">Commits by Hour (all time, UTC-3)</text>
  <line x1="35" y1="45" x2="35" y2="155" stroke="#586069"/>
  <line x1="31" y1="155" x2="35" y2="155" stroke="#586069"/>
  <text x="29" y="158" font-size="10" fill="#586069" text-anchor="end">0</text>
  <line x1="31" y1="137" x2="35" y2="137" stroke="#586069"/>
  <text x="29" y="140" font-size="10" fill="#586069" text-anchor="end">10</text>
  <line x1="31" y1="119" x2="35" y2="119" stroke="#586069"/>
  <text x="29" y="122" font-size="10" fill="#586069" text-anchor="end">20</text>
  <line x1="31" y1="100" x2="35" y2="100" stroke="#586069"/>
  <text x="29" y="103" font-size="10" fill="#586069" text-anchor="end">30</text>
  <line x1="31" y1="82" x2="35" y2="82" stroke="#586069"/>
  <text x="29" y="85" font-size="10" fill="#586069" text-anchor="end">40</text>
  <line x1="31" y1="64" x2="35" y2="64" stroke="#586069"/>
  <text x="29" y="67" font-size="10" fill="#586069" text-anchor="end">50</text>
  <line x1="31" y1="45" x2="35" y2="45" stroke="#586069"/>
  <text x="29" y="48" font-size="10" fill="#586069" text-anchor="end">60</text>
  <line x1="35" y1="155" x2="325" y2="155" stroke="#586069"/>
  <line x1="40" y1="155" x2="40" y2="159" stroke="#586069"/>
  <text x="40" y="171" font-size="10" fill="#586069" text-anchor="middle">0</text>
  <line x1="113" y1="155" x2="113" y2="159" stroke="#586069"/>
  <text x="113" y="171" font-size="10" fill="#586069" text-anchor="middle">6</text>
  <line x1="186" y1="155" x2="186" y2="159" stroke="#586069"/>
  <text x="186" y="171" font-size="10" fill="#586069" text-anchor="middle">12</text>
  <line x1="258" y1="155" x2="258" y2="159" stroke="#586069"/>
  <text x="258" y="171" font-size="10" fill="#586069" text-anchor="middle">18</text>
  <line x1="319" y1="155" x2="319" y2="159" stroke="#586069"/>
  <text x="319" y="171" font-size="10" fill="#586069" text-anchor="middle">23</text>
  <rect x="35.00" y="145.83" width="11.12" height="9.17" rx="2" fill="#40c463"><title>00:00 — 5 commits</title></rect>
  <rect x="47.12" y="149.50" width="11.12" height="5.50" rx="2" fill="#40c463"><title>01:00 — 3 commits</title></rect>
  <rect x="59.25" y="149.50" width="11.12" height="5.50" rx="2" fill="#40c463"><title>02:00 — 3 commits</title></rect>
  <rect x="71.38" y="155.00" width="11.12" height="0.00" rx="2" fill="#40c463"><title>03:00 — 0 commits</title></rect>
  <rect x="83.50" y="155.00" width="11.12" height="0.00" rx="2" fill="#40c463"><title>04:00 — 0 commits</title></rect>
  <rect x="95.62" y="144.00" width="11.12" height="11.00" rx="2" fill="#40c463"><title>05:00 — 6 commits</title></rect>
  <rect x="107.75" y="118.33" width="11.12" height="36.67" rx="2" fill="#40c463"><title>06:00 — 20 commits</title></rect>
  <rect x="119.88" y="45.00" width="11.12" height="110.00" rx="2" fill="#40c463"><title>07:00 — 60 commits</title></rect>
  <rect x="132.00" y="65.17" width="11.12" height="89.83" rx="2" fill="#40c463"><title>08:00 — 49 commits</title></rect>
  <rect x="144.12" y="50.50" width="11.12" height="104.50" rx="2" fill="#40c463"><title>09:00 — 57 commits</title></rect>
  <rect x="156.25" y="46.83" width="11.12" height="108.17" rx="2" fill="#40c463"><title>10:00 — 59 commits</title></rect>
  <rect x="168.38" y="59.67" width="11.12" height="95.33" rx="2" fill="#40c463"><title>11:00 — 52 commits</title></rect>
  <rect x="180.50" y="54.17" width="11.12" height="100.83" rx="2" fill="#40c463"><title>12:00 — 55 commits</title></rect>
  <rect x="192.62" y="85.33" width="11.12" height="69.67" rx="2" fill="#40c463"><title>13:00 — 38 commits</title></rect>
  <rect x="204.75" y="65.17" width="11.12" height="89.83" rx="2" fill="#40c463"><title>14:00 — 49 commits</title></rect>
  <rect x="216.88" y="78.00" width="11.12" height="77.00" rx="2" fill="#40c463"><title>15:00 — 42 commits</title></rect>
  <rect x="229.00" y="78.00" width="11.12" height="77.00" rx="2" fill="#40c463"><title>16:00 — 42 commits</title></rect>
  <rect x="241.12" y="90.83" width="11.12" height="64.17" rx="2" fill="#40c463"><title>17:00 — 35 commits</title></rect>
  <rect x="253.25" y="61.50" width="11.12" height="93.50" rx="2" fill="#40c463"><title>18:00 — 51 commits</title></rect>
  <rect x="265.38" y="103.67" width="11.12" height="51.33" rx="2" fill="#40c463"><title>19:00 — 28 commits</title></rect>
  <rect x="277.50" y="105.50" width="11.12" height="49.50" rx="2" fill="#40c463"><title>20:00 — 27 commits</title></rect>
  <rect x="289.62" y="85.33" width="11.12" height="69.67" rx="2" fill="#40c463"><title>21:00 — 38 commits</title></rect>
  <rect x="301.75" y="123.83" width="11.12" height="31.17" rx="2" fill="#40c463"><title>22:00 — 17 commits</title></rect>
  <rect x="313.88" y="98.17" width="11.12" height="56.83" rx="2" fill="#40c463"><title>23:00 — 31 commits</title></rect>
  <text x="180" y="189" font-size="11" fill="#586069" text-anchor="middle">hour of day</text>
</svg>