<svg xmlns="http://www.w3.org/2000/svg" width="340" height="200" viewBox="0 0 340 200" font-family="'Segoe UI', Ubuntu, Sans-Serif">
  <rect x="0.5" y="0.5" width="339" height="199" rx="6" fill="#ffffff" stroke="#e4e2e2" stroke-opacity="1.00"/>
  <text x="20" y="30" font-size="15" font-weight="600" fill="#0366d6">Commits by Weekday (all time)</text>
  <line x1="35" y1="45" x2="35" y2="155" stroke="#586069"/>
  <line x1="31" y1="155" x2="35" y2="155" stroke="#586069"/>
  <text x="29" y="158" font-size="10" fill="#586069" text-anchor="end">0</text>
  <line x1="31" y1="140" x2="35" y2="140" stroke="#586069"/>
  <text x="29" y="143" font-size="10" fill="#586069" text-anchor="end">20</text>
  <line x1="31" y1="124" x2="35" y2="124" stroke="#586069"/>
  <text x="29" y="127" font-size="10" fill="#586069" text-anchor="end">40</text>
  <line x1="31" y1="108" x2="35" y2="108" stroke="#586069"/>
  <text x="29" y="111" font-size="10" fill="#586069" text-anchor="end">60</text>
  <line x1="31" y1="93" x2="35" y2="93" stroke="#586069"/>
  <text x="29" y="96" font-size="10" fill="#586069" text-anchor="end">80</text>
  <line x1="31" y1="77" x2="35" y2="77" stroke="#586069"/>
  <text x="29" y="80" font-size="10" fill="#586069" text-anchor="end">100</text>
  <line x1="31" y1="61" x2="35" y2="61" stroke="#586069"/>
  <text x="29" y="64" font-size="10" fill="#586069" text-anchor="end">120</text>
  <line x1="31" y1="45" x2="35" y2="45" stroke="#586069"/>
  <text x="29" y="48" font-size="10" fill="#586069" text-anchor="end">140</text>
  <line x1="35" y1="155" x2="325" y2="155" stroke="#586069"/>
  <rect x="35.00" y="120.43" width="36.29" height="34.57" rx="2" fill="#95dea9"><title>Sun — 44 commits</title></rect>
  <text x="53.14" y="169" font-size="10" fill="#586069" text-anchor="middle">Sun</text>
  <rect x="77.29" y="45.00" width="36.29" height="110.00" rx="2" fill="#40c463"><title>Mon — 140 commits</title></rect>
  <text x="95.43" y="169" font-size="10" fill="#586069" text-anchor="middle">Mon</text>
  <rect x="119.57" y="90.57" width="36.29" height="64.43" rx="2" fill="#95dea9"><title>Tue — 82 commits</title></rect>
  <text x="137.71" y="169" font-size="10" fill="#586069" text-anchor="middle">Tue</text>
  <rect x="161.86" y="115.71" width="36.29" height="39.29" rx="2" fill="#95dea9"><title>Wed — 50 commits</title></rect>
  <text x="180.00" y="169" font-size="10" fill="#586069" text-anchor="middle">Wed</text>
  <rect x="204.14" y="119.64" width="36.29" height="35.36" rx="2" fill="#95dea9"><title>Thu — 45 commits</title></rect>
  <text x="222.29" y="169" font-size="10" fill="#586069" text-anchor="middle">Thu</text>
  <rect x="246.43" y="96.07" width="36.29" height="58.93" rx="2" fill="#95dea9"><title>Fri — 75 commits</title></rect>
  <text x="264.57" y="169" font-size="10" fill="#586069" text-anchor="middle">Fri</text>
  <rect x="288.71" y="69.36" width="36.29" height="85.64" rx="2" fill="#95dea9"><title>Sat — 109 commits</title></rect>
  <text x="306.86" y="169" font-size="10" fill="#586069" text-anchor="middle">Sat</text>
</svg>