<svg xmlns="http://www.w3.org/2000/svg" width="340" height="200" viewBox="0 0 340 200" font-family="'Segoe UI', Ubuntu, Sans-Serif">
  <rect x="0.5" y="0.5" width="339" height="199" rx="6" fill="#ffffff" stroke="#e4e2e2" stroke-opacity="1.00"/>
  <text x="20" y="30" font-size="15" font-weight="600" fill="#0366d6">Repos Per Language</text>
  <rect x="20" y="47" width="10" height="10" fill="#3178c6" stroke="#ffffff" stroke-width="1"/>
  <text x="36" y="55" font-size="11" fill="#586069">TypeScript 24.39%</text>
  <rect x="20" y="67" width="10" height="10" fill="#f1e05a" stroke="#ffffff" stroke-width="1"/>
  <text x="36" y="75" font-size="11" fill="#586069">JavaScript 21.95%</text>
  <rect x="20" y="87" width="10" height="10" fill="#e34c26" stroke="#ffffff" stroke-width="1"/>
  <text x="36" y="95" font-size="11" fill="#586069">HTML 14.63%</text>
  <rect x="20" y="107" width="10" height="10" fill="#4F5D95" stroke="#ffffff" stroke-width="1"/>
  <text x="36" y="115" font-size="11" fill="#586069">PHP 14.63%</text>
  <rect x="20" y="127" width="10" height="10" fill="#663399" stroke="#ffffff" stroke-width="1"/>
  <text x="36" y="135" font-size="11" fill="#586069">CSS 12.20%</text>
  <rect x="20" y="147" width="10" height="10" fill="#f7523f" stroke="#ffffff" stroke-width="1"/>
  <text x="36" y="155" font-size="11" fill="#586069">Blade 9.76%</text>
  <rect x="20" y="167" width="10" height="10" fill="#c6538c" stroke="#ffffff" stroke-width="1"/>
  <text x="36" y="175" font-size="11" fill="#586069">SCSS 2.44%</text>
  <path d="M250.00,55.00 A55.00,55.00 0 0 1 304.96,107.89 L279.98,108.85 A30.00,30.00 0 0 0 250.00,80.00 Z" fill="#3178c6" stroke="#ffffff" stroke-width="1.5"/>
  <path d="M304.96,107.89 A55.00,55.00 0 0 1 262.53,163.55 L256.84,139.21 A30.00,30.00 0 0 0 279.98,108.85 Z" fill="#f1e05a" stroke="#ffffff" stroke-width="1.5"/>
  <path d="M262.53,163.55 A55.00,55.00 0 0 1 215.01,152.43 L230.91,133.14 A30.00,30.00 0 0 0 256.84,139.21 Z" fill="#e34c26" stroke="#ffffff" stroke-width="1.5"/>
  <path d="M215.01,152.43 A55.00,55.00 0 0 1 195.04,107.89 L220.02,108.85 A30.00,30.00 0 0 0 230.91,133.14 Z" fill="#4F5D95" stroke="#ffffff" stroke-width="1.5"/>
  <path d="M195.04,107.89 A55.00,55.00 0 0 1 211.86,70.37 L229.20,88.38 A30.00,30.00 0 0 0 220.02,108.85 Z" fill="#663399" stroke="#ffffff" stroke-width="1.5"/>
  <path d="M211.86,70.37 A55.00,55.00 0 0 1 241.60,55.64 L245.42,80.35 A30.00,30.00 0 0 0 229.20,88.38 Z" fill="#f7523f" stroke="#ffffff" stroke-width="1.5"/>
  <path d="M241.60,55.64 A55.00,55.00 0 0 1 250.00,55.00 L250.00,80.00 A30.00,30.00 0 0 0 245.42,80.35 Z" fill="#c6538c" stroke="#ffffff" stroke-width="1.5"/>
</svg>